<svg width="1129" height="703" viewBox="0 0 1129 703" fill="none" xmlns="http://www.w3.org/2000/svg">
<path d="M991.238 459.669C985.77 506.528 974.407 544.15 958.811 574.154C938.057 614.132 902.558 630.24 870.846 647.094C861.683 651.956 852.156 656.099 842.351 659.486C784.646 679.517 720.06 674.203 669.328 663.627C633.745 656.203 597.626 651.636 561.315 649.969C550.959 649.502 540.593 649.27 530.216 649.274C514.215 649.294 226.102 654.764 155.955 512.724C138.636 477.686 126.765 434.885 122.5 382.713C110.431 235.214 176.76 138.341 262.317 75.022C424.165 -44.7561 704.539 -12.4056 864 110.527C946.5 202.527 1011.14 289.016 991.238 459.669Z" fill="#3F3D56"/>
<path d="M965.627 574.154C944.873 614.132 916.638 640.618 884.926 657.473C875.763 662.334 866.236 666.477 856.431 669.865C798.726 689.895 734.14 684.581 683.408 674.006C647.825 666.582 611.706 662.014 575.396 660.348C565.039 659.881 554.673 659.649 544.296 659.652C528.295 659.673 512.298 660.268 496.303 661.437C392.359 669.076 232.918 654.764 162.771 512.724L338.285 172.725L403.607 340.461L424.454 394.004L481.911 315.148L511.578 274.434L646.684 429.354L684.871 345.008L949.252 560.796L963.998 572.825L965.627 574.154Z" fill="#88B95B"/>
<path opacity="0.1" d="M313.38 281.699L340.36 222.542L377.717 308.683L345.549 246.412L313.38 281.699Z" fill="black"/>
<path opacity="0.1" d="M575.396 660.347C565.04 659.88 554.673 659.649 544.296 659.652L424.454 394.004L575.396 660.347Z" fill="black"/>
<path opacity="0.1" d="M481.912 315.148L511.578 292.077L646.477 447.755L509.503 314.91L481.912 315.148Z" fill="black"/>
<path opacity="0.1" d="M884.926 657.473C875.763 662.334 866.236 666.477 856.432 669.864L646.685 429.354L884.926 657.473Z" fill="black"/>
<path d="M500.164 96.962C501.883 96.962 503.277 95.568 503.277 93.8484C503.277 92.1288 501.883 90.7349 500.164 90.7349C498.445 90.7349 497.051 92.1288 497.051 93.8484C497.051 95.568 498.445 96.962 500.164 96.962Z" fill="#F2F2F2"/>
<path d="M414.036 203.86C415.755 203.86 417.149 202.466 417.149 200.747C417.149 199.027 415.755 197.633 414.036 197.633C412.317 197.633 410.923 199.027 410.923 200.747C410.923 202.466 412.317 203.86 414.036 203.86Z" fill="#F2F2F2"/>
<path d="M624.686 221.504C625.832 221.504 626.761 220.575 626.761 219.428C626.761 218.282 625.832 217.353 624.686 217.353C623.54 217.353 622.61 218.282 622.61 219.428C622.61 220.575 623.54 221.504 624.686 221.504Z" fill="#F2F2F2"/>
<path d="M188.859 268.207C190.005 268.207 190.934 267.278 190.934 266.131C190.934 264.985 190.005 264.056 188.859 264.056C187.712 264.056 186.783 264.985 186.783 266.131C186.783 267.278 187.712 268.207 188.859 268.207Z" fill="#F2F2F2"/>
<path d="M637.138 92.8106C638.284 92.8106 639.213 91.8813 639.213 90.7349C639.213 89.5885 638.284 88.6592 637.138 88.6592C635.992 88.6592 635.062 89.5885 635.062 90.7349C635.062 91.8813 635.992 92.8106 637.138 92.8106Z" fill="#F2F2F2"/>
<path d="M765.811 192.444C766.957 192.444 767.886 191.515 767.886 190.368C767.886 189.222 766.957 188.293 765.811 188.293C764.665 188.293 763.735 189.222 763.735 190.368C763.735 191.515 764.665 192.444 765.811 192.444Z" fill="#F2F2F2"/>
<path d="M892.408 350.197C893.554 350.197 894.483 349.267 894.483 348.121C894.483 346.975 893.554 346.045 892.408 346.045C891.262 346.045 890.333 346.975 890.333 348.121C890.333 349.267 891.262 350.197 892.408 350.197Z" fill="#F2F2F2"/>
<path d="M317.531 113.837H314.667V110.973H313.132V113.837H310.268V115.371H313.132V118.235H314.667V115.371H317.531V113.837Z" fill="#F2F2F2"/>
<path d="M879.956 428.305H877.092V425.441H875.556V428.305H872.692V429.839H875.556V432.703H877.092V429.839H879.956V428.305Z" fill="#F2F2F2"/>
<path d="M1129 625.227C1129 642.423 876.265 702.028 564.5 702.028C252.735 702.028 0 642.423 0 625.227C0 608.031 252.735 639.757 564.5 639.757C876.265 639.757 1129 608.032 1129 625.227Z" fill="#3F3D56"/>
<path opacity="0.1" d="M1129 625.227C1129 642.423 876.265 702.028 564.5 702.028C252.735 702.028 0 642.423 0 625.227C0 608.031 252.735 639.757 564.5 639.757C876.265 639.757 1129 608.032 1129 625.227Z" fill="black"/>
<path d="M564.5 656.362C876.265 656.362 1129 642.422 1129 625.227C1129 608.031 876.265 594.091 564.5 594.091C252.735 594.091 0 608.031 0 625.227C0 642.422 252.735 656.362 564.5 656.362Z" fill="#3F3D56"/>
<path d="M589.405 581.637C589.405 616.028 574.073 606.545 555.161 606.545C536.249 606.545 520.917 616.028 520.917 581.637C520.917 547.246 555.161 482.004 555.161 482.004C555.161 482.004 589.405 547.246 589.405 581.637Z" fill="#FFAF65"/>
<path opacity="0.1" d="M570.726 594.796C570.726 610.428 563.757 606.118 555.161 606.118C546.565 606.118 539.596 610.428 539.596 594.796C539.596 579.164 555.161 549.509 555.161 549.509C555.161 549.509 570.726 579.166 570.726 594.796Z" fill="black"/>
<path d="M593.555 615.886H516.766C511.609 615.886 507.427 620.068 507.427 625.227C507.427 630.386 511.609 634.567 516.766 634.567H593.555C598.713 634.567 602.894 630.386 602.894 625.227C602.894 620.068 598.713 615.886 593.555 615.886Z" fill="#2F2E41"/>
<path d="M593.555 597.205H516.766C511.609 597.205 507.427 601.387 507.427 606.545C507.427 611.704 511.609 615.886 516.766 615.886H593.555C598.713 615.886 602.894 611.704 602.894 606.545C602.894 601.387 598.713 597.205 593.555 597.205Z" fill="#2F2E41"/>
<path d="M142.163 497.121C142.163 554.558 178.19 601.036 222.714 601.036L142.163 497.121Z" fill="#3F3D56"/>
<path d="M222.714 601.037C222.714 542.953 262.919 495.953 312.604 495.953L222.714 601.037Z" fill="#65617D"/>
<path d="M171.348 502.328C171.348 556.888 194.322 601.037 222.713 601.037L171.348 502.328Z" fill="#65617D"/>
<path d="M222.714 601.037C222.714 526.819 269.184 466.763 326.613 466.763L222.714 601.037Z" fill="#3F3D56"/>
<path d="M205.772 601.77C205.772 601.77 217.196 601.418 220.638 598.967C224.08 596.517 238.21 593.588 239.064 597.52C239.918 601.451 256.232 617.077 243.335 617.182C230.437 617.286 213.367 615.172 209.932 613.079C206.496 610.986 205.772 601.77 205.772 601.77Z" fill="#A8A8A8"/>
<path opacity="0.2" d="M243.561 615.812C230.664 615.915 213.594 613.802 210.158 611.709C207.541 610.115 206.498 604.394 206.149 601.755L205.768 601.769C205.768 601.769 206.494 610.984 209.928 613.082C213.361 615.179 230.433 617.288 243.331 617.185C247.054 617.154 248.34 615.83 248.269 613.863C247.752 615.049 246.332 615.789 243.561 615.812Z" fill="black"/>
<path d="M748.615 535.038C748.615 574.506 773.371 606.442 803.966 606.442L748.615 535.038Z" fill="#3F3D56"/>
<path d="M803.965 606.443C803.965 566.531 831.592 534.235 865.733 534.235L803.965 606.443Z" fill="#65617D"/>
<path d="M768.669 538.615C768.669 576.106 784.456 606.443 803.965 606.443L768.669 538.615Z" fill="#65617D"/>
<path d="M803.965 606.443C803.965 555.444 835.898 514.178 875.358 514.178L803.965 606.443Z" fill="#3F3D56"/>
<path d="M792.321 606.946C792.321 606.946 800.171 606.704 802.536 605.02C804.901 603.335 814.611 601.323 815.196 604.026C815.781 606.728 826.992 617.465 818.131 617.536C809.269 617.608 797.539 616.156 795.178 614.718C792.817 613.279 792.321 606.946 792.321 606.946Z" fill="#A8A8A8"/>
<path opacity="0.2" d="M818.29 616.595C809.429 616.667 797.699 615.215 795.338 613.776C793.54 612.68 792.824 608.75 792.584 606.937L792.321 606.947C792.321 606.947 792.818 613.278 795.18 614.718C797.542 616.157 809.271 617.608 818.133 617.536C820.691 617.516 821.575 616.602 821.526 615.253C821.17 616.071 820.195 616.579 818.29 616.595Z" fill="black"/>
<path d="M661 624.102C661 624.102 672.788 622.307 676.046 619.337C679.305 616.367 693.573 611.565 694.95 615.531C696.327 619.497 715.179 633.638 701.833 635.361C688.487 637.084 670.544 637.031 666.723 635.294C662.902 633.556 661 624.102 661 624.102Z" fill="#A8A8A8"/>
<path opacity="0.2" d="M968.395 639.956C955.051 641.678 937.106 641.626 933.285 639.888C930.38 638.565 928.579 632.771 927.889 630.081L927.496 630.144C927.496 630.144 929.398 639.598 933.22 641.335C937.042 643.073 954.985 643.126 968.33 641.403C972.182 640.906 973.348 639.373 973.03 637.349C972.64 638.642 971.262 639.586 968.395 639.956Z" fill="black"/>
<path opacity="0.2" d="M671.925 637.571C660.663 639.024 645.518 638.98 642.294 637.514C639.838 636.397 638.323 631.507 637.739 629.236L637.407 629.289C637.407 629.289 639.012 637.267 642.237 638.733C645.462 640.2 660.604 640.245 671.868 638.791C675.119 638.375 676.103 637.077 675.834 635.366C675.508 636.463 674.345 637.26 671.925 637.571Z" fill="black"/>
<path d="M127.001 624.322C127.001 624.322 134.745 623.143 136.887 621.192C139.029 619.241 148.405 616.086 149.307 618.692C150.209 621.298 162.598 630.588 153.829 631.72C145.061 632.851 133.272 632.817 130.762 631.675C128.251 630.533 127.001 624.322 127.001 624.322Z" fill="#A8A8A8"/>
<path opacity="0.2" d="M153.873 630.769C145.105 631.9 133.315 631.866 130.805 630.724C128.894 629.855 127.714 626.048 127.259 624.28L127.001 624.322C127.001 624.322 128.246 630.532 130.762 631.675C133.277 632.818 145.062 632.851 153.829 631.72C156.36 631.393 157.126 630.386 156.917 629.057C156.662 629.905 155.756 630.526 153.873 630.769Z" fill="black"/>
<path opacity="0.1" d="M398.159 612.104C398.159 643.468 354.448 633.767 300.928 633.767C247.408 633.767 204.347 643.468 204.347 612.104C204.347 580.74 248.052 573.919 301.571 573.919C355.091 573.919 398.159 580.74 398.159 612.104Z" fill="black"/>
<path d="M398.159 604.386C398.159 635.75 354.448 626.049 300.928 626.049C247.408 626.049 204.347 635.75 204.347 604.386C204.347 573.022 248.048 566.193 301.567 566.193C355.087 566.193 398.159 573.018 398.159 604.386Z" fill="#3F3D56"/>
</svg>
